<svg width="15" height="10" viewBox="0 0 15 10" fill="none" xmlns="http://www.w3.org/2000/svg">
<path d="M14.9919 1.79463C14.9919 1.92981 14.9452 2.0494 14.8517 2.15338L8.31459 9.42203C8.22107 9.52602 8.11352 9.57801 7.99194 9.57801C7.87037 9.57801 7.76282 9.52602 7.6693 9.42203L1.13222 2.15338C1.0387 2.0494 0.991943 1.92981 0.991943 1.79463C0.991943 1.65945 1.0387 1.53986 1.13222 1.43588L1.83363 0.65598C1.92715 0.551993 2.0347 0.5 2.15627 0.5C2.27785 0.5 2.3854 0.551993 2.47892 0.65598L7.99194 6.78598L13.505 0.65598C13.5985 0.551993 13.706 0.5 13.8276 0.5C13.9492 0.5 14.0567 0.551993 14.1503 0.65598L14.8517 1.43588C14.9452 1.53986 14.9919 1.65945 14.9919 1.79463Z" fill="#0A7777"/>
</svg>
